<?xml version="1.0" standalone="no"?>
<!DOCTYPE svg PUBLIC "-//W3C//DTD SVG 20010904//EN"
 "http://www.w3.org/TR/2001/REC-SVG-20010904/DTD/svg10.dtd">
<svg version="1.0" xmlns="http://www.w3.org/2000/svg"
 width="497.000000pt" height="497.000000pt" viewBox="0 0 497.000000 497.000000"
 preserveAspectRatio="xMidYMid meet">
<metadata>
Created by potrace 1.14, written by Peter Selinger 2001-2017
</metadata>
<g transform="translate(0.000000,497.000000) scale(0.100000,-0.100000)"
fill="#000000" stroke="none">
<path d="M2279 4856 c-2 -2 -33 -7 -69 -10 -36 -4 -90 -11 -120 -16 -30 -5
-71 -12 -90 -15 -19 -3 -42 -8 -50 -10 -8 -2 -29 -7 -47 -10 -18 -3 -44 -10
-58 -15 -14 -5 -37 -12 -52 -15 -48 -8 -216 -67 -318 -110 -222 -95 -410 -210
-620 -378 -73 -58 -272 -261 -338 -344 -282 -353 -454 -764 -505 -1203 -14
-130 -5 -561 13 -590 2 -3 6 -26 10 -50 26 -187 122 -468 228 -670 110 -210
301 -461 471 -619 21 -20 48 -45 60 -56 79 -77 265 -210 416 -297 259 -149
618 -275 865 -304 22 -3 47 -7 55 -9 68 -19 461 -27 605 -12 426 45 806 178
1155 404 151 99 229 162 386 318 149 146 239 260 371 470 29 46 123 236 156
315 32 79 83 232 92 280 2 11 6 24 9 28 2 4 7 27 11 52 4 25 8 47 10 51 5 6
21 106 31 189 10 72 10 429 1 500 -30 236 -87 452 -172 655 -67 158 -191 367
-313 525 -81 105 -290 314 -397 399 -44 34 -88 69 -98 77 -9 8 -22 14 -27 14
-6 0 -10 5 -10 10 0 6 -4 10 -9 10 -4 0 -41 22 -82 48 -95 62 -180 108 -299
162 -92 41 -295 118 -334 126 -10 2 -42 10 -71 19 -68 19 -244 54 -310 60 -28
3 -63 8 -76 11 -26 7 -474 15 -480 10z"/>
</g>
</svg>
